# xmcd CD database file
#
# Track frame offsets:
#	150
#	19516
#	34384
#	53825
#	73222
#	88113
#	105751
#
# Disc length: 1630 seconds
#
# Revision: 0
# Processed by: cddbd v1.5.2PL0 Copyright (c) Steve Scherf et al.
# Submitted via: CDex 1.70beta2
#
DISCID=53065c07
DTITLE=Clifford Brown - Bones For Jones
DYEAR=1954
DGENRE=Jazz
TTITLE0=Daahoud
TTITLE1=Joy Spring
TTITLE2=Bones For Jones
TTITLE3=Tiny Capers
TTITLE4=Blueberry Hill
TTITLE5=Finders Keepers
TTITLE6=Gone With The Wind
EXTD=YEAR: 1954
EXTT0=
EXTT1=
EXTT2=
EXTT3=
EXTT4=
EXTT5=
EXTT6=
PLAYORDER=
